# xmcd
#
# Track frame offsets: 
#        150
#        11692
#        21995
#        31960
#        44792
#        56695
#        69520
#        82600
#        95100
#        107547
#        117792
#        129262
#        141387
#        153367
#        164627
#        176317
#
# Disc length: 2512 seconds
#
# Revision: 6
# Processed by: cddbd v1.5.2PL0 Copyright (c) Steve Scherf et al.
# Submitted via: ExactAudioCopy v0.99pb5
#
DISCID=d209ce10
DTITLE=Kitty Wells - Country Music Hall of Fame Series
DYEAR=1991
DGENRE=Country
TTITLE0=It Wasn't God Who Made Honky Tonk Angels
TTITLE1=I Heard the Jukebox Playing
TTITLE2=Icicles Hanging from Your Heart
TTITLE3=My Cold, Cold Heart Is Melted Now
TTITLE4=I Gave My Wedding Dress Away
TTITLE5=Release Me
TTITLE6=Making Believe
TTITLE7=I'd Rather Stay Home
TTITLE8=Searching (for Someone Like You)
TTITLE9=I Can't Stop Loving You
TTITLE10=Mommy for a Day
TTITLE11=Amigo's Guitar
TTITLE12=Heartbreak U.S.A.
TTITLE13=Will Your Lawyer Talk to God
TTITLE14=Password
TTITLE15=A Woman Half My Age
EXTD=kitty at her best
EXTT0=Kitty Wells
EXTT1=Kitty Wells
EXTT2=Kitty Wells
EXTT3=Kitty Wells
EXTT4=Kitty Wells
EXTT5=Kitty Wells
EXTT6=Kitty Wells
EXTT7=Kitty Wells
EXTT8=Kitty Wells
EXTT9=
EXTT10=Kitty Wells
EXTT11=Kitty Wells
EXTT12=Kitty Wells
EXTT13=Kitty Wells
EXTT14=Kitty Wells
EXTT15=Kitty Wells
PLAYORDER=
